<svg width="128" height="128" viewBox="0 0 128 128" fill="none" xmlns="http://www.w3.org/2000/svg">
  <rect width="128" height="128" rx="28" fill="#EDF7FF"/>
  <path d="M18 79.5C18 55.7 30 37 44.1 37C53.2 37 61 45.1 69.4 59.1L75.7 69.8L82.3 59.3C90.8 45.8 98.1 38 106.7 38C119.7 38 128 56.1 128 79.5H109.6C109.6 66.3 105.5 56.7 101.7 56.7C97.6 56.7 93.2 62.1 86.8 72.7L78.5 86.7C76.7 89.7 73.5 91.5 70 91.5C66.5 91.5 63.2 89.7 61.4 86.7L52.4 71.5C45.5 59.9 40.7 54.6 36.4 54.6C31.7 54.6 27.6 64.2 27.6 79.5H18Z" fill="url(#paint0_linear_meta)"/>
  <defs>
    <linearGradient id="paint0_linear_meta" x1="18" y1="37" x2="118" y2="96" gradientUnits="userSpaceOnUse">
      <stop stop-color="#00A6FF"/>
      <stop offset="1" stop-color="#6C2CFF"/>
    </linearGradient>
  </defs>
</svg>
